<svg version="1.1" xmlns="http://www.w3.org/2000/svg" viewBox="0 0 807 483.5" width="807" height="483.5">
  <!-- svg-source:excalidraw -->
  
  <defs>
    <style class="style-fonts">
      @font-face {
        font-family: "Virgil";
        src: url("https://excalidraw.com/Virgil.woff2");
      }
      @font-face {
        font-family: "Cascadia";
        src: url("https://excalidraw.com/Cascadia.woff2");
      }
    </style>
    
  </defs>
  <rect x="0" y="0" width="807" height="483.5" fill="#ffffff"></rect><g stroke-linecap="round" transform="translate(311 10) rotate(0 106 63.5)"><path d="M31.75 0 M31.75 0 C63.82 -0.13, 97.23 0.4, 180.25 0 M31.75 0 C65.87 1.1, 99.12 -0.11, 180.25 0 M180.25 0 C202.27 0.38, 211.33 11.25, 212 31.75 M180.25 0 C203.1 -1.16, 213.27 10.12, 212 31.75 M212 31.75 C212.61 51.94, 210.28 72.38, 212 95.25 M212 31.75 C211.23 57.34, 210.71 81.9, 212 95.25 M212 95.25 C213.43 116.07, 202.35 126.62, 180.25 127 M212 95.25 C211.42 114.23, 202.18 129.03, 180.25 127 M180.25 127 C121.01 124.98, 65.4 127.58, 31.75 127 M180.25 127 C129.55 127.65, 81.05 127.15, 31.75 127 M31.75 127 C12.13 127.77, 1.47 114.91, 0 95.25 M31.75 127 C9.15 128.92, 2.17 116.61, 0 95.25 M0 95.25 C1.07 80.18, -1.64 62.44, 0 31.75 M0 95.25 C0.46 82.11, 0.84 68.73, 0 31.75 M0 31.75 C-1.79 8.99, 11.16 0.44, 31.75 0 M0 31.75 C1.44 12.41, 11.65 -0.38, 31.75 0" stroke="#000000" stroke-width="1" fill="none"></path></g><g transform="translate(333.6160430908203 56) rotate(0 83.38395690917969 17.5)"><text x="83.38395690917969" y="0" font-family="Virgil, Segoe UI Emoji" font-size="28px" fill="#000000" text-anchor="middle" style="white-space: pre;" direction="ltr" dominant-baseline="text-before-edge">ServerConfig</text></g><g stroke-linecap="round" transform="translate(109 226.5) rotate(0 106 63.5)"><path d="M31.75 0 M31.75 0 C69.5 -1.27, 110.04 0.77, 180.25 0 M31.75 0 C87.15 1.74, 144.13 1.03, 180.25 0 M180.25 0 C202.43 -0.78, 212.3 10.68, 212 31.75 M180.25 0 C200 1, 213.16 8.73, 212 31.75 M212 31.75 C212.03 54.66, 213.62 78.26, 212 95.25 M212 31.75 C211.18 57.01, 212.05 81.3, 212 95.25 M212 95.25 C213.48 117.33, 200.02 128.57, 180.25 127 M212 95.25 C213.72 117.4, 203.32 125.37, 180.25 127 M180.25 127 C147.49 124.15, 110.97 126.59, 31.75 127 M180.25 127 C137.89 125.02, 93.34 125.11, 31.75 127 M31.75 127 C12.58 125.17, 1.73 115.87, 0 95.25 M31.75 127 C12.63 125.57, 1.54 114.19, 0 95.25 M0 95.25 C-0.91 70.05, 2.1 45.55, 0 31.75 M0 95.25 C-1.46 80.86, -1.28 66.91, 0 31.75 M0 31.75 C1.45 10.74, 12.13 0.79, 31.75 0 M0 31.75 C0.86 9.67, 9.06 -1.29, 31.75 0" stroke="#000000" stroke-width="1" fill="none"></path></g><g transform="translate(144.0340347290039 272.5) rotate(0 70.9659652709961 17.5)"><text x="70.9659652709961" y="0" font-family="Virgil, Segoe UI Emoji" font-size="28px" fill="#000000" text-anchor="middle" style="white-space: pre;" direction="ltr" dominant-baseline="text-before-edge">JsonConfig</text></g><g stroke-linecap="round" transform="translate(535 227.5) rotate(0 106 63.5)"><path d="M31.75 0 M31.75 0 C70.36 -0.24, 106.76 1.18, 180.25 0 M31.75 0 C71.25 -0.66, 112.89 -2.05, 180.25 0 M180.25 0 C200.04 -0.54, 210.6 10.08, 212 31.75 M180.25 0 C202.14 0.48, 210.81 8.67, 212 31.75 M212 31.75 C211.75 48.47, 211 66.16, 212 95.25 M212 31.75 C210.8 49.42, 211.83 67.95, 212 95.25 M212 95.25 C210.89 114.86, 202.63 127.26, 180.25 127 M212 95.25 C214.06 118.02, 200.33 129.15, 180.25 127 M180.25 127 C128.82 126.98, 81.32 128.91, 31.75 127 M180.25 127 C147.94 125.73, 115.84 125.23, 31.75 127 M31.75 127 C12.12 128.25, -0.13 115.32, 0 95.25 M31.75 127 C9.49 128.45, 1.1 117.62, 0 95.25 M0 95.25 C0.93 80.48, 0.01 66.15, 0 31.75 M0 95.25 C1.05 76.21, 0.36 57.91, 0 31.75 M0 31.75 C0.98 12.45, 8.7 -0.61, 31.75 0 M0 31.75 C0.96 8.56, 12.57 0.67, 31.75 0" stroke="#000000" stroke-width="1" fill="none"></path></g><g transform="translate(577.5100326538086 273.5) rotate(0 63.489967346191406 17.5)"><text x="63.489967346191406" y="0" font-family="Virgil, Segoe UI Emoji" font-size="28px" fill="#000000" text-anchor="middle" style="white-space: pre;" direction="ltr" dominant-baseline="text-before-edge">EnvConfig</text></g><g stroke-linecap="round"><g transform="translate(215 227) rotate(0 49.971806156830894 -45.17867273727899)"><path d="M0.15 -0.2 C16.72 -14.76, 82.39 -73.62, 98.99 -88.36 M-1.24 -1.36 C15.74 -16.17, 84.49 -75.85, 101.18 -90.15" stroke="#000000" stroke-width="2" fill="none"></path></g><g transform="translate(215 227) rotate(0 49.971806156830894 -45.17867273727899)"><path d="M86.21 -65.64 C91.69 -71.24, 95.02 -79.17, 102.67 -89.47 M86.4 -63.17 C91.96 -73.83, 98.83 -85.37, 101.22 -90.01" stroke="#000000" stroke-width="2" fill="none"></path></g><g transform="translate(215 227) rotate(0 49.971806156830894 -45.17867273727899)"><path d="M72.8 -81.17 C81.67 -82.7, 88.53 -86.54, 102.67 -89.47 M72.99 -78.7 C83.95 -83.18, 96.14 -88.57, 101.22 -90.01" stroke="#000000" stroke-width="2" fill="none"></path></g></g><mask></mask><g stroke-linecap="round"><g transform="translate(638 227) rotate(0 -56.976252791685965 -45.6485074741114)"><path d="M-0.78 -1.05 C-20.02 -16.26, -95.21 -75.66, -114.36 -90.81 M1.02 1.02 C-18.42 -14.53, -95.34 -77.04, -114.97 -92.31" stroke="#000000" stroke-width="2" fill="none"></path></g><g transform="translate(638 227) rotate(0 -56.976252791685965 -45.6485074741114)"><path d="M-88.28 -81.69 C-95.72 -87.76, -108.73 -91.87, -116.85 -91.02 M-85.95 -82.13 C-94.77 -85.61, -104.75 -89.17, -115.11 -91.6" stroke="#000000" stroke-width="2" fill="none"></path></g><g transform="translate(638 227) rotate(0 -56.976252791685965 -45.6485074741114)"><path d="M-101.08 -65.65 C-103.56 -77.92, -111.57 -88.3, -116.85 -91.02 M-98.74 -66.08 C-103.48 -74.4, -109.51 -82.91, -115.11 -91.6" stroke="#000000" stroke-width="2" fill="none"></path></g></g><mask></mask><g stroke-linecap="round" transform="translate(10 436.5) rotate(0 61 17.5)"><path d="M8.75 0 M8.75 0 C45.36 -1.48, 80.37 -1.48, 113.25 0 M8.75 0 C30.68 0.33, 53.14 1.07, 113.25 0 M113.25 0 C120.33 0.62, 123.81 3.54, 122 8.75 M113.25 0 C120.47 0.69, 123.33 4.97, 122 8.75 M122 8.75 C121.98 12.14, 120.73 17.94, 122 26.25 M122 8.75 C122.34 13.6, 121.4 17.63, 122 26.25 M122 26.25 C122.08 30.44, 117.64 36.37, 113.25 35 M122 26.25 C121.49 29.95, 120.51 36.88, 113.25 35 M113.25 35 C81.25 33.44, 52.45 36.06, 8.75 35 M113.25 35 C84.87 34.05, 56.63 33.88, 8.75 35 M8.75 35 C4.73 33.17, 0.02 33.78, 0 26.25 M8.75 35 C4.74 36.18, 0.44 33.83, 0 26.25 M0 26.25 C0.75 22.48, 0.21 20.47, 0 8.75 M0 26.25 C0 21.8, -0.31 16.69, 0 8.75 M0 8.75 C1.9 3.78, 3.97 -1.84, 8.75 0 M0 8.75 C1.49 4.94, 2.27 -2.05, 8.75 0" stroke="#000000" stroke-width="1" fill="none"></path></g><g transform="translate(30.328033447265625 444) rotate(0 40.671966552734375 10)"><text x="40.671966552734375" y="0" font-family="Virgil, Segoe UI Emoji" font-size="16px" fill="#000000" text-anchor="middle" style="white-space: pre;" direction="ltr" dominant-baseline="text-before-edge">HostConfig</text></g><g stroke-linecap="round" transform="translate(160 437.5) rotate(0 61 17.5)"><path d="M8.75 0 M8.75 0 C37.4 0.47, 65.58 0, 113.25 0 M8.75 0 C42.94 0.27, 79.76 -0.36, 113.25 0 M113.25 0 C118.32 -1, 122.73 3.06, 122 8.75 M113.25 0 C118.69 1.49, 123.98 0.8, 122 8.75 M122 8.75 C120.69 11.36, 120.4 16.68, 122 26.25 M122 8.75 C121.67 14, 122.48 18.2, 122 26.25 M122 26.25 C123.87 30.62, 117.17 36.92, 113.25 35 M122 26.25 C121.72 33.16, 117.65 36.37, 113.25 35 M113.25 35 C90.55 34.17, 69.82 34.77, 8.75 35 M113.25 35 C77.08 35.2, 40.31 35.07, 8.75 35 M8.75 35 C1.67 33.3, -0.71 33.12, 0 26.25 M8.75 35 C4.87 35, -0.82 31.47, 0 26.25 M0 26.25 C0.33 22.52, 1.52 18.66, 0 8.75 M0 26.25 C0.18 20.08, -0.82 14.73, 0 8.75 M0 8.75 C1.63 2.88, 2.14 -0.84, 8.75 0 M0 8.75 C-0.88 3.37, 2.55 -0.72, 8.75 0" stroke="#000000" stroke-width="1" fill="none"></path></g><g transform="translate(187.72802734375 445) rotate(0 33.27197265625 10)"><text x="33.27197265625" y="0" font-family="Virgil, Segoe UI Emoji" font-size="16px" fill="#000000" text-anchor="middle" style="white-space: pre;" direction="ltr" dominant-baseline="text-before-edge">DbConfig</text></g><g stroke-linecap="round" transform="translate(305 438.5) rotate(0 61 17.5)"><path d="M8.75 0 M8.75 0 C41.85 2.51, 75.06 -0.46, 113.25 0 M8.75 0 C32.81 -0.29, 58.31 -0.86, 113.25 0 M113.25 0 C119.28 -1.71, 120.3 3.1, 122 8.75 M113.25 0 C117.98 1.32, 124.29 1.26, 122 8.75 M122 8.75 C121.86 16.99, 123.41 20.33, 122 26.25 M122 8.75 C121.46 13.17, 122.62 16.61, 122 26.25 M122 26.25 C120.22 31.3, 119.69 34.99, 113.25 35 M122 26.25 C121.86 33.71, 120.83 35.93, 113.25 35 M113.25 35 C80.74 35.51, 50.64 35.49, 8.75 35 M113.25 35 C83.6 36.44, 51.92 35.22, 8.75 35 M8.75 35 C2.24 34.21, -0.02 34.07, 0 26.25 M8.75 35 C3.77 33.43, 2.02 34.02, 0 26.25 M0 26.25 C-1.49 23.94, 1.22 18.9, 0 8.75 M0 26.25 C-0.31 20.56, 0.65 14.97, 0 8.75 M0 8.75 C-1.2 4.42, 2.63 0.28, 8.75 0 M0 8.75 C1.33 4.72, 1.46 0.37, 8.75 0" stroke="#000000" stroke-width="1" fill="none"></path></g><g transform="translate(359.4240188598633 446) rotate(0 6.575981140136719 10)"><text x="6.575981140136719" y="0" font-family="Virgil, Segoe UI Emoji" font-size="16px" fill="#000000" text-anchor="middle" style="white-space: pre;" direction="ltr" dominant-baseline="text-before-edge">...</text></g><g stroke-linecap="round" transform="translate(526 436.5) rotate(0 61 17.5)"><path d="M8.75 0 M8.75 0 C41.21 0.82, 75.56 1.06, 113.25 0 M8.75 0 C34.86 -1.3, 61.59 -0.39, 113.25 0 M113.25 0 C117.36 -1.18, 120.2 1.1, 122 8.75 M113.25 0 C121.14 -1.08, 119.97 1.48, 122 8.75 M122 8.75 C123.63 12.43, 123.67 17.08, 122 26.25 M122 8.75 C121.63 14.57, 122.3 18.42, 122 26.25 M122 26.25 C120.01 30.51, 119.83 33.68, 113.25 35 M122 26.25 C121.99 31.64, 119.52 34.06, 113.25 35 M113.25 35 C72.71 35.49, 34.81 35.31, 8.75 35 M113.25 35 C91.29 33.83, 68.41 33.91, 8.75 35 M8.75 35 C4.06 34.86, -1.77 32.39, 0 26.25 M8.75 35 C1.56 34.78, -2.02 34.1, 0 26.25 M0 26.25 C-0.92 19.45, 1.59 13.23, 0 8.75 M0 26.25 C0 21.21, 0.14 15.39, 0 8.75 M0 8.75 C1.05 3.45, 1.33 1.2, 8.75 0 M0 8.75 C0.2 1.5, 2.47 -1.35, 8.75 0" stroke="#000000" stroke-width="1" fill="none"></path></g><g transform="translate(542.6320190429688 444) rotate(0 44.36798095703125 10)"><text x="44.36798095703125" y="0" font-family="Virgil, Segoe UI Emoji" font-size="16px" fill="#000000" text-anchor="middle" style="white-space: pre;" direction="ltr" dominant-baseline="text-before-edge">Environment</text></g><g stroke-linecap="round" transform="translate(675 436.5) rotate(0 61 17.5)"><path d="M8.75 0 M8.75 0 C41.34 -2.13, 74.08 -0.37, 113.25 0 M8.75 0 C33.97 0.98, 58.01 0.82, 113.25 0 M113.25 0 C118.1 1.08, 122.39 2.86, 122 8.75 M113.25 0 C120.95 -1.08, 120 2.9, 122 8.75 M122 8.75 C121.65 12.86, 122.02 19.9, 122 26.25 M122 8.75 C122.14 12.47, 122.3 17.04, 122 26.25 M122 26.25 C122.82 30.9, 119.3 34.86, 113.25 35 M122 26.25 C121.33 29.85, 121.02 34.31, 113.25 35 M113.25 35 C92.94 35.64, 69.59 33.99, 8.75 35 M113.25 35 C78.16 34.51, 41.26 34.08, 8.75 35 M8.75 35 C4.83 34.83, -1.1 32, 0 26.25 M8.75 35 C3.56 33.33, 1.24 30.81, 0 26.25 M0 26.25 C-1.54 21.63, 0.39 16.43, 0 8.75 M0 26.25 C-0.01 21.08, 0.19 14.7, 0 8.75 M0 8.75 C-0.64 2.61, 1.06 -1.79, 8.75 0 M0 8.75 C-1.02 4.48, 1.37 -1.98, 8.75 0" stroke="#000000" stroke-width="1" fill="none"></path></g><g transform="translate(704.6880187988281 444) rotate(0 31.311981201171875 10)"><text x="31.311981201171875" y="0" font-family="Virgil, Segoe UI Emoji" font-size="16px" fill="#000000" text-anchor="middle" style="white-space: pre;" direction="ltr" dominant-baseline="text-before-edge">.env File</text></g><g stroke-linecap="round"><g transform="translate(68 434) rotate(0 20.583832216458404 -40.553108190000046)"><path d="M0.53 0.28 C7.22 -13.29, 32.86 -67.65, 39.41 -81.39 M-0.65 -0.62 C6.5 -14.01, 35.21 -66.59, 41.81 -80.05" stroke="#000000" stroke-width="2" fill="none"></path></g><g transform="translate(68 434) rotate(0 20.583832216458404 -40.553108190000046)"><path d="M38.33 -51.29 C38.17 -57.8, 37.91 -66.45, 40.93 -78.69 M37.41 -49.86 C39.92 -58.23, 39.32 -63.62, 41.7 -80.2" stroke="#000000" stroke-width="2" fill="none"></path></g><g transform="translate(68 434) rotate(0 20.583832216458404 -40.553108190000046)"><path d="M20.14 -60.79 C24.36 -65.08, 28.48 -71.45, 40.93 -78.69 M19.22 -59.36 C25.88 -65.56, 29.52 -68.73, 41.7 -80.2" stroke="#000000" stroke-width="2" fill="none"></path></g></g><mask></mask><g stroke-linecap="round"><g transform="translate(219 437) rotate(0 -0.3643295241678288 -36.634836826273215)"><path d="M0.24 -0.7 C0.27 -13.15, 0.24 -62.39, 0.45 -74.81 M-1.09 1.55 C-1.29 -10.67, -1.14 -60.57, -0.79 -73.18" stroke="#000000" stroke-width="2" fill="none"></path></g><g transform="translate(219 437) rotate(0 -0.3643295241678288 -36.634836826273215)"><path d="M7.93 -45.78 C6.25 -53.15, 2.29 -63.84, -0.57 -73.07 M9.28 -45.34 C6.39 -52.31, 3.72 -61.04, -0.74 -74.07" stroke="#000000" stroke-width="2" fill="none"></path></g><g transform="translate(219 437) rotate(0 -0.3643295241678288 -36.634836826273215)"><path d="M-12.59 -46.05 C-7.65 -53.38, -4.98 -63.98, -0.57 -73.07 M-11.24 -45.61 C-8.38 -52.69, -5.3 -61.35, -0.74 -74.07" stroke="#000000" stroke-width="2" fill="none"></path></g></g><mask></mask><g stroke-linecap="round"><g transform="translate(364 437) rotate(0 -20.804889468578608 -41.65980864612857)"><path d="M-1.18 0.85 C-7.94 -12.88, -34.4 -68.32, -41.04 -82.37 M0.4 0.25 C-6.47 -13.84, -34.97 -70.4, -42.01 -84.17" stroke="#000000" stroke-width="2" fill="none"></path></g><g transform="translate(364 437) rotate(0 -20.804889468578608 -41.65980864612857)"><path d="M-18.7 -63.72 C-24.71 -69.22, -32.16 -75.77, -42.96 -84.57 M-20.25 -64.19 C-28.13 -71.01, -35.42 -78.07, -42.32 -85.06" stroke="#000000" stroke-width="2" fill="none"></path></g><g transform="translate(364 437) rotate(0 -20.804889468578608 -41.65980864612857)"><path d="M-37.01 -54.45 C-38.31 -62.15, -41.05 -71.08, -42.96 -84.57 M-38.56 -54.92 C-39.8 -64.92, -40.55 -75.29, -42.32 -85.06" stroke="#000000" stroke-width="2" fill="none"></path></g></g><mask></mask><g stroke-linecap="round"><g transform="translate(588 434) rotate(0 10.668452147813582 -35.89499440176877)"><path d="M0.19 -1.05 C3.48 -13.35, 16.87 -60.9, 20.21 -72.8 M-1.17 1.01 C2.46 -11.24, 18.52 -59.63, 22.51 -71.68" stroke="#000000" stroke-width="2" fill="none"></path></g><g transform="translate(588 434) rotate(0 10.668452147813582 -35.89499440176877)"><path d="M21.64 -43.01 C21.51 -53.12, 21.83 -62.83, 23.53 -71.86 M24.25 -41.76 C22.92 -51.69, 22.99 -60.61, 22.37 -72.25" stroke="#000000" stroke-width="2" fill="none"></path></g><g transform="translate(588 434) rotate(0 10.668452147813582 -35.89499440176877)"><path d="M2.16 -49.46 C8.69 -57.41, 15.61 -64.94, 23.53 -71.86 M4.77 -48.2 C9.31 -56.05, 15.3 -63.02, 22.37 -72.25" stroke="#000000" stroke-width="2" fill="none"></path></g></g><mask></mask><g stroke-linecap="round"><g transform="translate(730 430) rotate(0 -16.221172000467732 -33.9975067603076)"><path d="M0.51 -1.19 C-5.04 -12.49, -27.38 -57.52, -32.95 -68.8 M-0.68 0.81 C-5.89 -10.28, -25.77 -56.21, -30.74 -67.69" stroke="#000000" stroke-width="2" fill="none"></path></g><g transform="translate(730 430) rotate(0 -16.221172000467732 -33.9975067603076)"><path d="M-12.09 -47.49 C-18.05 -54.5, -24.98 -60.11, -31.09 -69.08 M-10 -46.23 C-16.81 -54.28, -25.72 -61.93, -31.2 -67.64" stroke="#000000" stroke-width="2" fill="none"></path></g><g transform="translate(730 430) rotate(0 -16.221172000467732 -33.9975067603076)"><path d="M-30.92 -39.33 C-30.62 -49.1, -31.36 -57.39, -31.09 -69.08 M-28.83 -38.07 C-28.86 -49.15, -30.95 -59.75, -31.2 -67.64" stroke="#000000" stroke-width="2" fill="none"></path></g></g><mask></mask></svg>